<?xml version="1.0" encoding="UTF-8"?><svg id="Layer_2" xmlns="http://www.w3.org/2000/svg" viewBox="0 0 111.04 86.05"><defs><style>.cls-1{fill:#fff;stroke:#231f20;stroke-miterlimit:10;}</style></defs><g id="Layer_1-2"><g><path class="cls-1" d="M55.55,15.54c-15.98,0-31.97,.02-47.95-.01-5.72-.01-7.11-1.56-7.1-7.6C.51,2.03,1.95,.52,7.79,.51c31.8-.02,63.6-.02,95.4,0,5.88,0,7.33,1.5,7.35,7.35,.02,6.23-1.35,7.66-7.54,7.67-15.82,.02-31.63,0-47.45,0Z"/><path class="cls-1" d="M55.54,50.54c-15.82,0-31.63,.01-47.45,0-6.22,0-7.6-1.43-7.59-7.61,.01-6.06,1.4-7.41,7.79-7.41,31.47,0,62.93,0,94.4,0,6.42,0,7.82,1.34,7.84,7.37,.02,6.35-1.33,7.66-8.04,7.66-15.65,0-31.3,0-46.95,0Z"/><path class="cls-1" d="M55.69,85.54c-15.98,0-31.97,.02-47.95,0-5.81,0-7.23-1.53-7.24-7.46,0-6.01,1.39-7.55,7.15-7.55,31.97-.02,63.93-.02,95.9,0,5.62,0,7.02,1.63,6.99,7.71-.03,5.63-1.52,7.29-6.9,7.3-15.98,.04-31.97,.01-47.95,.01Z"/></g></g></svg>