<?xml version="1.0" encoding="UTF-8"?><svg id="Layer_2" xmlns="http://www.w3.org/2000/svg" viewBox="0 0 171.04 171.04"><defs><style>.cls-1{fill:#fff;}.cls-1,.cls-2{stroke:#231f20;stroke-miterlimit:10;}</style></defs><g id="Layer_1-2"><g><path class="cls-1" d="M85.45,.5c46.99-.01,85.1,38.09,85.09,85.07-.01,46.94-38.17,85-85.2,84.96C38.44,170.5,.45,132.29,.5,85.21,.55,38.57,38.72,.51,85.45,.5Zm.22,10.04c-41.47-.02-75.11,33.49-75.13,74.83-.02,41.47,33.49,75.11,74.83,75.13,41.47,.02,75.11-33.49,75.13-74.83,.02-41.47-33.49-75.11-74.83-75.13Z"/><path class="cls-2" d="M65.45,75.22c.08,5,2.4,12.13,7.26,18.38,6.94,8.91,16.75,9.45,24.18,.93,7.22-8.28,9.4-18.19,7.39-28.86-.99-5.25-4.15-9.34-8.94-12.03-14.26-8.02-29.94,1.78-29.89,21.59Zm19.71,45.31c8.83,0,17.66,.07,26.49-.02,7.36-.07,10.22-5.21,6.84-11.86-2.69-5.29-7.86-6.97-12.8-8.8-1.42-.53-3.9-.01-5.09,.98-10.74,8.96-20.31,8.97-30.77-.18-.9-.78-2.41-1.89-3.19-1.61-5.58,2.02-11.54,3.62-14.64,9.51-3.6,6.85-.59,11.91,7.18,11.97,8.66,.06,17.32,.01,25.99,.01Z"/><path class="cls-1" d="M65.45,75.22c-.06-19.81,15.63-29.61,29.89-21.59,4.79,2.69,7.95,6.78,8.94,12.03,2.02,10.67-.17,20.59-7.39,28.86-7.43,8.52-17.24,7.98-24.18-.93-4.86-6.25-7.18-13.37-7.26-18.38Z"/><path class="cls-1" d="M85.16,120.54c-8.66,0-17.32,.04-25.99-.01-7.77-.05-10.78-5.12-7.18-11.97,3.1-5.89,9.05-7.49,14.64-9.51,.78-.28,2.29,.82,3.19,1.61,10.47,9.15,20.04,9.14,30.77,.18,1.19-1,3.68-1.51,5.09-.98,4.93,1.84,10.11,3.51,12.8,8.8,3.38,6.65,.52,11.79-6.84,11.86-8.83,.09-17.66,.02-26.49,.02Z"/></g></g></svg>